<?xml version="1.0" standalone="no"?>
<!DOCTYPE svg PUBLIC "-//W3C//DTD SVG 20010904//EN"
 "http://www.w3.org/TR/2001/REC-SVG-20010904/DTD/svg10.dtd">
<svg version="1.0" xmlns="http://www.w3.org/2000/svg"
 width="500.000000pt" height="500.000000pt" viewBox="0 0 500.000000 500.000000"
 preserveAspectRatio="xMidYMid meet">
<metadata>
Created by potrace 1.14, written by Peter Selinger 2001-2017
</metadata>
<g transform="translate(0.000000,500.000000) scale(0.100000,-0.100000)"
fill="#000000" stroke="none">
<path d="M2335 4269 c-106 -14 -142 -21 -230 -44 -618 -161 -1102 -646 -1254
-1256 -43 -171 -50 -244 -46 -449 2 -107 6 -208 9 -225 4 -16 13 -66 22 -110
22 -117 85 -297 143 -414 183 -363 454 -630 815 -801 249 -118 454 -164 731
-165 181 0 244 6 382 36 396 86 756 313 1004 634 76 98 96 129 182 288 53 97
124 296 142 396 3 19 7 37 9 40 4 6 11 54 26 175 11 96 2 361 -15 441 -3 11
-7 31 -9 45 -29 160 -76 300 -154 458 -109 220 -251 396 -467 581 -164 140
-450 279 -695 337 -164 39 -441 54 -595 33z m425 -123 c8 -2 34 -7 57 -10 184
-23 468 -142 652 -274 320 -228 554 -573 640 -942 52 -226 60 -487 20 -675 -6
-27 -13 -63 -16 -78 -17 -103 -106 -317 -191 -462 -240 -410 -697 -708 -1182
-771 -78 -10 -303 -11 -385 -2 -247 28 -508 124 -717 265 -358 240 -604 610
-689 1038 -19 95 -24 170 -24 340 1 138 5 191 24 279 130 619 579 1092 1191
1256 25 7 52 13 60 15 43 8 159 26 185 28 45 5 358 0 375 -7z"/>
<path d="M1693 3485 c-80 -22 -131 -52 -187 -109 -61 -61 -92 -120 -111 -213
-42 -197 3 -363 132 -492 73 -72 106 -96 253 -183 248 -148 305 -232 304 -453
-1 -126 -23 -200 -78 -262 -102 -117 -338 -105 -425 23 -48 70 -78 182 -85
318 -2 31 -5 59 -8 61 -9 10 -80 -20 -103 -43 -77 -77 -49 -259 55 -356 85
-79 165 -106 321 -108 155 -3 270 37 354 120 96 94 136 203 136 374 0 158 -40
266 -134 358 -39 39 -169 129 -348 240 -118 74 -195 164 -215 251 -10 45 -11
167 -2 224 23 150 136 252 266 239 144 -14 210 -123 224 -366 2 -39 5 -42 48
-38 98 8 143 108 100 222 -27 73 -85 132 -167 170 -56 27 -78 31 -171 34 -74
3 -123 0 -159 -11z"/>
<path d="M2490 3464 c0 -10 15 -14 55 -14 60 0 107 -18 121 -47 12 -25 15
-1579 3 -1620 -13 -45 -47 -65 -116 -67 -33 -1 -58 -7 -61 -14 -3 -9 70 -12
299 -12 236 0 300 3 291 12 -7 7 -34 13 -61 14 -61 3 -89 17 -103 52 -8 18
-12 145 -13 382 l-2 356 74 0 75 0 70 -146 c259 -538 285 -582 372 -627 70
-37 266 -59 266 -31 0 8 -10 14 -21 15 -47 4 -103 85 -237 343 -38 74 -106
206 -151 292 -44 86 -81 161 -81 166 0 6 10 12 23 16 43 10 117 57 161 102 87
87 127 217 121 394 -2 52 -5 102 -8 110 -50 193 -141 281 -332 322 -28 6 -200
12 -397 13 -288 2 -348 0 -348 -11z m661 -30 c149 -44 208 -215 189 -544 -8
-130 -58 -255 -123 -304 -48 -36 -129 -56 -227 -56 l-87 0 0 460 0 460 97 0
c59 0 117 -6 151 -16z"/>
</g>
</svg>
